<svg xmlns="http://www.w3.org/2000/svg" version="1.1" xmlns:xlink="http://www.w3.org/1999/xlink" width="512" height="512" x="0" y="0" viewBox="0 0 32 32" style="enable-background:new 0 0 512 512" xml:space="preserve" class=""><g><path d="M15 22v3a3 3 0 0 1-3 3H6.3l-2.75 1.83A1 1 0 0 1 2 29v-7a3 3 0 0 1 3-3h7a3 3 0 0 1 3 3zM6.52 8.14l.17-.08H7.26a.85.85 0 0 1 .17.06l.17.11s.08 0 .11.07l2.42 2.42 2.32-1.54a.82.82 0 0 1 .36-.18h.38a.82.82 0 0 1 .36.15L17 11.46V5a3 3 0 0 0-3-3H5a3 3 0 0 0-3 3v6.5l4.4-3.3zM17 13.87l-4-2.67-1.43 1 .14.13a1 1 0 0 1 0 1.42 1 1 0 0 1-1.42 0l-3.38-3.43L2 14a3 3 0 0 0 3 3h9a3 3 0 0 0 3-3zM30 5v9a3 3 0 0 1-3 3h-5a3 3 0 0 1-3-3V5a3 3 0 0 1 3-3h5a3 3 0 0 1 3 3zm-3 8a1 1 0 0 0-1-1h-3a1 1 0 0 0 0 2h3a1 1 0 0 0 1-1zm0-3.5a1 1 0 0 0-1-1h-3a1 1 0 0 0 0 2h3a1 1 0 0 0 1-1zM27 6a1 1 0 0 0-1-1h-3a1 1 0 0 0 0 2h3a1 1 0 0 0 1-1zm3 16v5a3 3 0 0 1-3 3h-7a3 3 0 0 1-3-3v-5a3 3 0 0 1 3-3h7a3 3 0 0 1 3 3zm-4.5 2.5a1 1 0 0 0-.55-.89l-2-1a1 1 0 0 0-1.45.89v2a1 1 0 0 0 .47.85 1 1 0 0 0 .53.15 1 1 0 0 0 .45-.11l2-1a1 1 0 0 0 .55-.89z" fill="#bd2424" opacity="1" data-original="#bd2424" class=""></path></g></svg>