<svg xmlns="http://www.w3.org/2000/svg" version="1.1" xmlns:xlink="http://www.w3.org/1999/xlink" width="512" height="512" x="0" y="0" viewBox="0 0 512 512" style="enable-background:new 0 0 512 512" xml:space="preserve" class=""><g><circle cx="156" cy="55" r="55" fill="#a05018" opacity="1" data-original="#a05018" class=""></circle><path d="M308.541 305h-11.529c.012 4.451.021 8.734.021 10.989 0 2.607.016 6.778.036 11.024 4.369-.021 8.705-.036 11.472-.036 6.754 0 12.459-5.032 12.459-10.988 0-5.957-5.706-10.989-12.459-10.989z" fill="#a05018" opacity="1" data-original="#a05018" class=""></path><path d="M497 230H15c-8.284 0-15 6.716-15 15v190c0 8.284 6.716 15 15 15h482c8.284 0 15-6.716 15-15V245c0-8.284-6.716-15-15-15zM240.201 390c0 8.284-6.716 15-15 15s-15-6.716-15-15v-36.715H171V390c0 8.284-6.716 15-15 15s-15-6.716-15-15V290c0-8.284 6.716-15 15-15s15 6.716 15 15v33.285h39.201V290c0-8.284 6.716-15 15-15s15 6.716 15 15zm107.059-9.91c5.473 6.219 4.869 15.697-1.35 21.17-6.219 5.473-15.697 4.869-21.17-1.35l-27.806-31.592V390c0 8.284-6.716 15-15 15s-15-6.716-15-15V290c0-8.284 6.716-15 15-15l.016.001.016-.001h26.574c23.413 0 42.46 18.388 42.46 40.989 0 17.217-11.06 31.979-26.677 38.04zM261 200v-15c0-31.121-16.822-58.375-41.841-73.185C203.589 129.106 181.045 140 156 140s-47.589-10.894-63.159-28.185C67.822 126.625 51 153.879 51 185v15zM448.155 200l31.772-79.429C483.868 110.718 476.612 100 466 100H356a15 15 0 0 0-13.927 9.429L305.845 200zM61 512h30c8.284 0 15-6.716 15-15v-17H46v17c0 8.284 6.716 15 15 15zM421 512h30c8.284 0 15-6.716 15-15v-17h-60v17c0 8.284 6.716 15 15 15z" fill="#a05018" opacity="1" data-original="#a05018" class=""></path></g></svg>