<svg xmlns="http://www.w3.org/2000/svg" version="1.1" xmlns:xlink="http://www.w3.org/1999/xlink" width="512" height="512" x="0" y="0" viewBox="0 0 24 24" style="enable-background:new 0 0 512 512" xml:space="preserve" class=""><g><path fill="#bad7ff" d="M17.75 5A2.752 2.752 0 0 0 15 2.25H6A2.752 2.752 0 0 0 3.25 5v13A2.752 2.752 0 0 0 6 20.75h9.041c.738 0 1.432-.288 1.951-.812a2.725 2.725 0 0 0 .799-1.953L17.75 5.001z" opacity="1" data-original="#bad7ff" class=""></path><path fill="#549bff" d="M6.25 6A.75.75 0 0 1 7 5.25h7a.75.75 0 0 1 0 1.5H7A.75.75 0 0 1 6.25 6zM14 8.25H7a.75.75 0 0 0 0 1.5h7a.75.75 0 0 0 0-1.5zm-4 3H7a.75.75 0 0 0 0 1.5h3a.75.75 0 0 0 0-1.5zM21.34 11.846l-2-1.015a.756.756 0 0 0-.34-.081h-4a.76.76 0 0 0-.34.081l-2 1.015a.75.75 0 0 0-.41.669v2.618c0 2.657 1.66 5.07 4.134 6.005a1.734 1.734 0 0 0 1.235-.001c2.471-.934 4.131-3.347 4.131-6.004v-2.618a.75.75 0 0 0-.41-.669z" opacity="1" data-original="#549bff" class=""></path><path fill="#bad7ff" d="M16.7 17.254a.753.753 0 0 1-.56-.25l-1.2-1.344a.75.75 0 0 1 1.12-.999l.641.717 1.24-1.389a.75.75 0 0 1 1.12.999l-1.8 2.015a.753.753 0 0 1-.56.25z" opacity="1" data-original="#bad7ff" class=""></path></g></svg>