<svg xmlns="http://www.w3.org/2000/svg" version="1.1" xmlns:xlink="http://www.w3.org/1999/xlink" width="512" height="512" x="0" y="0" viewBox="0 0 512 512" style="enable-background:new 0 0 512 512" xml:space="preserve" fill-rule="evenodd" class=""><g><path fill="#495163" d="M226.53 511.98c-.87 0-1.75-.17-2.6-.5a7.006 7.006 0 0 1-4.4-6.5v-68.56c0-3.86 3.13-7 7-7 8.79 0 26.51.03 58.94.03 3.86 0 7 3.14 7 7v68.53c0 2.77-1.64 5.28-4.17 6.4a6.99 6.99 0 0 1-7.54-1.23l-26.56-24.14-22.6 23.79a6.973 6.973 0 0 1-5.07 2.18z" opacity="1" data-original="#495163"></path><path fill="#5badf1" d="M430.93 439.92H296.1a6.995 6.995 0 0 1-5.75-10.98l3.98-5.75a7.028 7.028 0 0 1 3.27-2.55l6.91-2.63 2.35-6.56a7.062 7.062 0 0 1 2.49-3.31l6-4.33.57-6.94c.12-1.41.66-2.75 1.55-3.85l4.67-5.73-1.24-6.86c-.25-1.39-.08-2.82.5-4.11l3.03-6.74-2.97-6.31a6.906 6.906 0 0 1-.58-4.1l1.18-7.3-4.51-5.32a7.009 7.009 0 0 1-1.62-3.81l-.75-7.36-5.73-3.97a7.002 7.002 0 0 1-2.55-3.26l-2.63-6.91-6.56-2.36a6.95 6.95 0 0 1-3.31-2.49l-4.33-6-6.95-.57a7.012 7.012 0 0 1-3.84-1.55l-5.73-4.67-6.86 1.24c-1.39.26-2.83.08-4.11-.5l-6.75-3.03-6.3 2.97c-1.28.61-2.71.81-4.1.59l-7.3-1.19-5.32 4.51a7.008 7.008 0 0 1-3.82 1.62l-7.35.75-3.97 5.73a7.063 7.063 0 0 1-3.27 2.56l-6.91 2.62-2.35 6.56a7.024 7.024 0 0 1-2.49 3.32l-6 4.32-.57 6.95a7.012 7.012 0 0 1-1.55 3.84l-4.67 5.73 1.24 6.86c.25 1.39.08 2.83-.5 4.12l-3.03 6.74 2.97 6.3c.61 1.28.81 2.71.59 4.11l-1.18 7.3 4.5 5.32c.91 1.07 1.48 2.4 1.62 3.81l.75 7.35 5.73 3.98c1.16.8 2.05 1.94 2.55 3.26l2.63 6.91 6.56 2.36c1.33.47 2.49 1.34 3.31 2.49l3.87 5.35a7.001 7.001 0 0 1-5.38 11.48h-106.2c-19.75 0-35.82-17.59-35.82-39.21V39.23C74.07 17.61 90.14.02 109.89.02h259.52a7 7 0 0 1 5.42 2.58l61.53 75.52a7.04 7.04 0 0 1 1.57 4.42v350.38c0 3.87-3.13 7-7 7z" opacity="1" data-original="#5badf1" class=""></path><path fill="#5396df" d="M369.01.02h.4a7 7 0 0 1 5.42 2.58l61.53 75.52a7.066 7.066 0 0 1 1.57 4.27v.07a7 7 0 0 1-7 6.83H369.1c-3.87 0-7-3.14-7-7V7.02c0-3.83 3.09-6.95 6.91-7z" opacity="1" data-original="#5396df"></path><path fill="#eca331" d="M256.24 452.88c-.98 0-1.95-.21-2.87-.62l-7.7-3.46-7.9 1.44a7 7 0 0 1-5.67-1.47l-6.54-5.33-8-.67a6.957 6.957 0 0 1-5.09-2.87l-4.95-6.85-7.55-2.71a6.999 6.999 0 0 1-4.18-4.1l-3-7.9-6.59-4.57a6.997 6.997 0 0 1-2.98-5.04l-.85-8.4-5.19-6.13a6.991 6.991 0 0 1-1.57-5.64l1.35-8.34-3.42-7.25c-.88-1.85-.9-3.99-.06-5.86l3.46-7.7-1.43-7.9c-.37-2.01.17-4.08 1.46-5.67l5.34-6.54.66-8c.17-2.04 1.22-3.9 2.88-5.1l6.85-4.94 2.7-7.55c.7-1.93 2.19-3.45 4.11-4.18l7.89-3 4.57-6.6a6.986 6.986 0 0 1 5.05-2.97l8.4-.86 6.12-5.18a6.991 6.991 0 0 1 5.64-1.57l8.34 1.35 7.25-3.43c1.85-.87 3.99-.89 5.86-.05l7.7 3.46 7.9-1.43a7.03 7.03 0 0 1 5.67 1.46l6.54 5.33 8 .67c2.04.17 3.9 1.22 5.1 2.88l4.94 6.85 7.55 2.71c1.93.69 3.45 2.18 4.18 4.1l3 7.89 6.6 4.57a7.017 7.017 0 0 1 2.97 5.04l.86 8.41 5.18 6.12a6.955 6.955 0 0 1 1.57 5.64l-1.35 8.34 3.43 7.25c.87 1.85.89 3.99.05 5.86l-3.46 7.7 1.43 7.9c.37 2.01-.17 4.08-1.46 5.66l-5.33 6.55-.67 8a7.027 7.027 0 0 1-2.87 5.1l-6.85 4.94-2.71 7.55a6.999 6.999 0 0 1-4.1 4.18l-7.9 3-4.57 6.6a7.017 7.017 0 0 1-5.04 2.97l-8.41.86-6.12 5.18a6.981 6.981 0 0 1-5.64 1.57l-8.34-1.35-7.25 3.43c-.95.45-1.97.67-2.99.67z" opacity="1" data-original="#eca331"></path><path fill="#f6cc17" d="M256 407.17c-20.64 0-37.43-16.79-37.43-37.43 0-20.63 16.79-37.42 37.43-37.42s37.43 16.79 37.43 37.42c0 20.64-16.79 37.43-37.43 37.43z" opacity="1" data-original="#f6cc17"></path><g fill="#fefefe"><path d="M279.38 147.52H147.71c-3.87 0-7-3.13-7-7 0-3.86 3.13-6.99 7-6.99h131.67c3.86 0 7 3.13 7 7 0 3.86-3.14 6.99-7 6.99zM332.67 188.35H147.71c-3.87 0-7-3.14-7-7 0-3.87 3.13-7 7-7h184.96c3.87 0 7 3.13 7 7 0 3.86-3.13 7-7 7zM364.29 229.17H147.71c-3.87 0-7-3.14-7-7 0-3.87 3.13-7 7-7h216.58c3.86 0 7 3.13 7 7 0 3.86-3.14 7-7 7z" fill="#fefefe" opacity="1" data-original="#fefefe" class=""></path></g></g></svg>