<svg xmlns="http://www.w3.org/2000/svg" version="1.1" xmlns:xlink="http://www.w3.org/1999/xlink" width="512" height="512" x="0" y="0" viewBox="0 0 512 512" style="enable-background:new 0 0 512 512" xml:space="preserve" class=""><g><path fill-rule="evenodd" d="m178.698 381.339 47.555 61.805c4.317 5.61 3.56 13.552-1.683 18.308l-16.354 14.842c-2.921 2.65-6.436 3.829-10.364 3.474-3.927-.355-7.162-2.154-9.573-5.275l-52.723-68.247zm260.869-158.618H488c7.747 0 14.016-6.327 14-14.064-.016-7.747-6.333-14.007-14.07-14.007h-48.433c-7.747 0-14.016 6.327-14 14.063.015 7.749 6.332 14.008 14.07 14.008zM382.078 95.199l24.217-41.944c3.869-6.701 1.607-15.301-5.095-19.189-6.692-3.882-15.306-1.617-19.179 5.092l-24.217 41.944c-3.869 6.701-1.607 15.301 5.095 19.189 6.692 3.882 15.305 1.617 19.179-5.092zm56.036 50.242 39.763-22.957c6.75-3.897 9.062-12.526 5.165-19.277-3.897-6.75-12.526-9.062-19.277-5.165L424.003 121c-6.75 3.897-9.062 12.526-5.165 19.277 3.897 6.749 12.526 9.061 19.276 5.164zm-62.538 63.168 46.9 81.234c8.806 15.251 3.531 34.934-11.72 43.74-14.232 8.217-32.322 4.172-41.832-8.799h-.002c-51.914-7.897-119.538.586-186.781 26.799l-64.646-111.969c56.344-45.079 97.63-99.115 116.749-148.022l.001-.002c-6.716-14.788-1.199-32.688 13.144-40.969 15.252-8.806 34.934-3.531 43.74 11.72l46.9 81.234a38.09 38.09 0 0 1 4.256-2.854c18.122-10.463 41.296-4.254 51.759 13.869s4.254 41.297-13.869 51.76a38.057 38.057 0 0 1-4.599 2.259zm-209.69 154.819L98.147 246.102l-53.851 31.091C11.574 296.085.26 338.314 19.151 371.035l.001.001c18.892 32.721 61.12 44.036 93.842 25.145l53.851-31.091z" clip-rule="evenodd" fill="#791E94" opacity="1" data-original="#791E94" class=""></path></g></svg>