<svg xmlns="http://www.w3.org/2000/svg" version="1.1" xmlns:xlink="http://www.w3.org/1999/xlink" width="512" height="512" x="0" y="0" viewBox="0 0 512 512" style="enable-background:new 0 0 512 512" xml:space="preserve" class=""><g><g data-name="Layer 2"><g data-name="02.sheald_check"><circle cx="256" cy="256" r="256" fill="#00a1f5" opacity="1" data-original="#00a1f5"></circle><path fill="#ffffff" d="M397.3 169.77a15.25 15.25 0 0 0-15.41-12.23c-63.16 2-114.2-52.24-114.69-52.77a15.19 15.19 0 0 0-11.2-4.9 15.23 15.23 0 0 0-11.17 4.88c-.51.55-51.57 54.81-114.71 52.79a15.24 15.24 0 0 0-15.41 12.23c-.32 1.57-7.56 39 5.53 87.32A225 225 0 0 0 159 335.37c22.42 29.29 52.58 54.4 89.68 74.64a15.22 15.22 0 0 0 14.58 0c37.1-20.24 67.26-45.35 89.68-74.64a225 225 0 0 0 38.8-78.28c13.12-48.34 5.88-85.75 5.56-87.32zm-75.73 57.66-75.95 76a15.22 15.22 0 0 1-21.53 0l-33.66-33.66A15.22 15.22 0 0 1 212 248.2l22.89 22.89L300 205.9a15.22 15.22 0 0 1 21.53 21.53z" opacity="1" data-original="#ffffff" class=""></path></g></g></g></svg>