<svg xmlns="http://www.w3.org/2000/svg" version="1.1" xmlns:xlink="http://www.w3.org/1999/xlink" width="512" height="512" x="0" y="0" viewBox="0 0 512 512" style="enable-background:new 0 0 512 512" xml:space="preserve" class=""><g><g fill="#2b3890"><path d="M91.892 501.041a7.729 7.729 0 0 1-7.519-5.978l-5.358-23.046a7.727 7.727 0 0 1 15.051-3.499l5.358 23.046a7.727 7.727 0 0 1-7.532 9.477zM420.109 501.041a7.728 7.728 0 0 1-7.534-9.477l5.357-23.046a7.728 7.728 0 0 1 15.053 3.499l-5.357 23.046a7.73 7.73 0 0 1-7.519 5.978z" fill="#2b3890" opacity="1" data-original="#2b3890"></path></g><path fill="#3342aa" d="M257.141 135.074a7.728 7.728 0 0 1-5.856-2.686L157.772 23.726a7.726 7.726 0 1 1 11.712-10.079l87.657 101.857 87.657-101.857a7.727 7.727 0 0 1 11.712 10.079l-93.513 108.662a7.728 7.728 0 0 1-5.856 2.686z" opacity="1" data-original="#3342aa"></path><path fill="#5766cb" d="M460.881 105.344a2992.313 2992.313 0 0 0-409.762 0c-22.188 1.521-40.223 18.601-42.82 40.689-11.066 94.152-11.066 188.304 0 282.456 2.596 22.088 20.632 39.168 42.819 40.689a2992.313 2992.313 0 0 0 409.762 0c22.188-1.521 40.223-18.601 42.819-40.689 11.066-94.152 11.066-188.304 0-282.456-2.594-22.088-20.63-39.168-42.818-40.689z" opacity="1" data-original="#5766cb"></path><path fill="#3342aa" d="M61.946 469.898c-3.601-.229-7.213-.468-10.825-.718-22.181-1.53-40.219-18.611-42.821-40.698-11.064-94.146-11.064-188.303 0-282.449 2.602-22.087 20.64-39.168 42.821-40.687 3.601-.25 7.203-.489 10.804-.718-13.791 7.078-23.721 20.651-25.626 36.836-11.418 97.196-11.418 194.392 0 291.588 1.905 16.185 11.845 29.768 25.647 36.846z" opacity="1" data-original="#3342aa"></path><path fill="#bed8fb" d="M437.069 142.392a2626.408 2626.408 0 0 0-362.137 0c-13.058.901-23.72 10.868-25.431 23.845-10.643 80.682-10.643 161.364 0 242.046 1.712 12.977 12.373 22.944 25.431 23.845a2626.094 2626.094 0 0 0 362.137 0c13.058-.901 23.72-10.868 25.431-23.845 10.643-80.682 10.643-161.364 0-242.046-1.712-12.976-12.373-22.944-25.431-23.845z" opacity="1" data-original="#bed8fb" class=""></path><path fill="#9dc6fb" d="M103.105 433.917a2542.862 2542.862 0 0 1-28.176-1.79c-13.064-.896-23.722-10.867-25.429-23.847-10.648-80.677-10.648-161.365 0-242.043 1.707-12.98 12.365-22.941 25.428-23.846 9.399-.645 18.798-1.249 28.197-1.79-7.963 4.195-13.719 12.053-14.957 21.431-11.012 83.488-11.012 166.965 0 250.453 1.239 9.368 6.984 17.227 14.937 21.432z" opacity="1" data-original="#9dc6fb"></path><path fill="#3342aa" d="M256 446.076c-60.675 0-121.35-2.079-181.601-6.238-16.684-1.152-30.377-13.997-32.559-30.543a933.43 933.43 0 0 1 0-244.067c2.183-16.546 15.876-29.391 32.559-30.543 120.501-8.318 242.7-8.318 363.201 0 16.684 1.152 30.377 13.997 32.559 30.543a933.43 933.43 0 0 1 0 244.067c-2.182 16.546-15.875 29.391-32.559 30.543a2639.977 2639.977 0 0 1-181.6 6.238zm0-302.178A2623.66 2623.66 0 0 0 75.464 150.1c-9.381.648-17.078 7.859-18.304 17.148a917.98 917.98 0 0 0 0 240.025c1.225 9.289 8.923 16.5 18.304 17.148 119.794 8.27 241.277 8.27 361.072 0 9.381-.647 17.078-7.859 18.304-17.147a917.988 917.988 0 0 0 0-240.026c-1.225-9.289-8.923-16.5-18.304-17.148A2623.66 2623.66 0 0 0 256 143.898z" opacity="1" data-original="#3342aa"></path></g></svg>