<svg width="81" height="81" viewBox="0 0 81 81" fill="none" xmlns="http://www.w3.org/2000/svg">
<path d="M69.5755 31.9306H65.2754C68.0756 27.6431 67.5943 21.8392 63.8294 18.0742C59.5113 13.7561 52.5101 13.7561 48.192 18.0742L47.2012 19.0651V13.667C47.2013 6.11898 41.0823 0 33.5343 0C25.9863 0 19.8673 6.11898 19.8673 13.667V19.5965H17.5916C7.87598 19.5965 0 27.4724 0 37.188C0 46.9036 7.87598 54.7796 17.5916 54.7796H69.5755C75.8851 54.7796 81 49.6647 81 43.3551C81 37.0456 75.8851 31.9306 69.5755 31.9306Z" fill="#EDF5FF"/>
<path d="M69.5754 31.932H65.2753C68.0755 27.6445 67.5942 21.8405 63.8293 18.0756C59.5111 13.7575 52.51 13.7575 48.1919 18.0756L47.201 19.0664V13.6684C47.201 6.15453 41.137 0.0591191 33.6362 0.00390625V54.7809H69.5754C75.885 54.7809 80.9999 49.6661 80.9999 43.3565C80.9999 37.0469 75.885 31.932 69.5754 31.932Z" fill="#D6E8FD"/>
<path d="M40.5611 17.465C40.28 17.435 39.9975 17.4193 39.7148 17.418C36.7878 17.4181 34.1665 18.9313 32.703 21.4664L14.1421 53.6147C12.6785 56.1497 12.6785 59.1766 14.1421 61.7115C15.6056 64.2466 18.227 65.7599 21.1541 65.7599H40.5611V17.465Z" fill="#FD657D"/>
<path d="M65.2882 53.6147L46.7274 21.4664C45.2637 18.9315 42.6424 17.418 39.7153 17.418V65.7599H58.2762C61.2033 65.7599 63.8247 64.2464 65.2882 61.7115C66.7518 59.1766 66.7518 56.1497 65.2882 53.6147Z" fill="#E43B54"/>
<path d="M40.2473 63.2871H19.4039C17.9193 63.2871 16.5898 62.5195 15.8473 61.2337C15.1051 59.948 15.1051 58.4127 15.8473 57.1269L36.1583 21.9475C36.9005 20.6618 38.2301 19.8942 39.7147 19.8942C39.8947 19.8942 40.0725 19.9059 40.2472 19.928V15.1568C40.0698 15.1462 39.8922 15.1408 39.7145 15.1406C36.5115 15.1408 33.6431 16.7969 32.0415 19.5708L11.7309 54.7501C10.1294 57.524 10.1294 60.8363 11.7309 63.6104C13.3324 66.3844 16.2009 68.0406 19.4039 68.0406H40.2473V63.2871Z" fill="#E43B54"/>
<path d="M67.6994 54.7501L47.3885 19.5708C45.7869 16.7969 42.9185 15.1408 39.7153 15.1406V19.8942C41.2001 19.8942 42.5294 20.6618 43.2719 21.9475L63.5828 57.1269C64.3251 58.4127 64.3251 59.948 63.5828 61.2337C62.8404 62.5195 61.5108 63.2871 60.0264 63.2871H39.7153V68.0406H60.0262C63.2292 68.0406 66.0978 66.3844 67.6994 63.6104C69.3011 60.8365 69.3011 57.5242 67.6994 54.7501Z" fill="#DF004B"/>
<path d="M39.7425 48.4028V34.3516H36.8561L37.8091 48.4028H39.7425ZM39.7425 52.0108C39.7333 52.0108 39.7246 52.0097 39.7154 52.0097C37.9937 52.0097 36.7637 53.1782 36.7637 54.7463C36.7637 56.2836 37.9937 57.5443 39.7154 57.5443C39.7246 57.5443 39.7333 57.5432 39.7425 57.543V52.0108Z" fill="#FED943"/>
<path d="M42.5749 34.3516H39.7153V48.4028H41.6218L42.5749 34.3516ZM42.6671 54.7463C42.6671 53.1782 41.4372 52.0097 39.7155 52.0097V57.5443C41.4372 57.5443 42.6671 56.2836 42.6671 54.7463Z" fill="#FCBE2C"/>
</svg>
