<svg width="200" height="200" viewBox="0 0 200 200" fill="none" xmlns="http://www.w3.org/2000/svg">
<rect width="200" height="200" rx="41" fill="white"/>
<rect x="27.0001" y="55" width="103.08" height="89.4373" rx="8" fill="#1E0093"/>
<path d="M137.66 82.1726V119.514C137.66 119.919 137.904 120.284 138.278 120.439L167.017 132.309C169.645 133.395 172.535 131.468 172.544 128.625L172.726 71.8401C172.735 68.9267 169.727 66.981 167.073 68.1846L138.247 81.2619C137.889 81.424 137.66 81.7802 137.66 82.1726Z" fill="#1E0093"/>
<path d="M59.5916 112.985V124.731V126.749C59.5916 128.392 61.4619 129.334 62.7818 128.357L101.215 99.8964C102.342 99.0616 102.282 97.356 101.099 96.6023L62.6662 72.1177C61.3348 71.2695 59.5916 72.2258 59.5916 73.8045V86.7485C59.5916 87.4631 59.9728 88.1233 60.5916 88.4806L77.095 98.0088C78.4196 98.7736 78.4305 100.682 77.1146 101.461L60.572 111.265C59.9643 111.625 59.5916 112.279 59.5916 112.985Z" fill="white"/>
</svg>
