<svg width="512" height="512" viewBox="0 0 512 512" fill="none" xmlns="http://www.w3.org/2000/svg">
<g clip-path="url(#clip0_678_12765)">
<path d="M324.413 127.445V63.7227H292.552L282.55 137.447L324.413 127.445Z" fill="#5533FF"/>
<path d="M292.552 63.7227H260.692V127.445L292.552 137.447V63.7227Z" fill="#6666FF"/>
<path d="M388.134 191.167V127.445H356.274L346.272 201.168L388.134 191.167Z" fill="#E62E6B"/>
<path d="M356.274 127.445H324.413L314.411 201.168L356.274 191.167V127.445Z" fill="#FF4D88"/>
<path d="M324.413 191.167V127.445H292.552L282.55 201.168L324.413 191.167Z" fill="#FFBB33"/>
<path d="M292.552 127.445H260.692L250.69 201.168L292.552 191.167V127.445Z" fill="#FFDD33"/>
<path d="M260.692 191.167V127.445H228.831L218.829 201.168L260.692 191.167Z" fill="#2995CC"/>
<path d="M228.831 127.445H196.97V191.167L228.831 201.168V127.445Z" fill="#2EC7E6"/>
<path d="M398.786 248.809C398.786 228.492 395.009 209.06 388.135 191.164H228.831L218.829 291.153L228.831 511.999H318.37V454.689H379.613L388.863 363.814H442.473L398.786 248.809Z" fill="#415BD1"/>
<path d="M87.7741 191.164C80.9008 209.06 77.123 228.492 77.123 248.809C77.123 296.438 97.834 339.225 130.733 368.675V512H228.831V191.164H87.7741Z" fill="#7F8BCC"/>
<path d="M388.134 63.7212V0H356.274L346.272 31.8611L356.274 63.7212H388.134Z" fill="#24B3B3"/>
<path d="M324.413 0H356.274V63.7212H324.413V0Z" fill="#2EE6A8"/>
<path d="M196.969 63.7212V0H165.109L155.107 31.8611L165.109 63.7212H196.969Z" fill="#E62E6B"/>
<path d="M165.11 0H133.249L123.247 31.8611L133.249 63.7212H165.11V0Z" fill="#FF4D88"/>
<path d="M133.249 63.7212V0H101.388L91.3857 73.7231L133.249 63.7212Z" fill="#FFDD33"/>
<path d="M101.387 0H69.5273V63.7212L101.387 73.7231V0Z" fill="#FFEE99"/>
<path d="M133.249 127.444V63.7227H101.388L91.3857 95.5838L101.388 127.444H133.249Z" fill="#24B3B3"/>
<path d="M69.5273 63.7227H101.388V127.444H69.5273V63.7227Z" fill="#2EE6A8"/>
</g>
<defs>
<clipPath id="clip0_678_12765">
<rect width="512" height="512" fill="white"/>
</clipPath>
</defs>
</svg>
