<svg width="512" height="512" viewBox="0 0 512 512" fill="none" xmlns="http://www.w3.org/2000/svg">
<path fill-rule="evenodd" clip-rule="evenodd" d="M301.14 194.962H153.869C149.67 194.962 146.07 191.663 146.07 187.164V104.08C146.07 99.5806 149.67 96.2812 153.869 96.2812C158.068 96.2812 161.667 99.5806 161.667 104.08V179.665H301.14C305.639 179.665 308.939 182.964 308.939 187.164C308.939 191.663 305.639 194.962 301.14 194.962Z" fill="#3B566A"/>
<path fill-rule="evenodd" clip-rule="evenodd" d="M301.14 229.455H104.678C100.179 229.455 96.8799 225.856 96.8799 221.657V147.271C96.8799 142.772 100.179 139.473 104.678 139.473C108.878 139.473 112.177 142.772 112.177 147.271V213.858H301.14C305.639 213.858 308.938 217.457 308.938 221.657C308.938 225.856 305.639 229.455 301.14 229.455ZM104.678 372.527C100.179 372.527 96.8799 369.228 96.8799 365.029V290.343C96.8799 286.144 100.179 282.545 104.678 282.545H301.14C305.639 282.545 308.938 286.144 308.938 290.343C308.938 294.842 305.639 298.142 301.14 298.142H112.177V365.029C112.177 369.228 108.878 372.527 104.678 372.527Z" fill="#3B566A"/>
<path fill-rule="evenodd" clip-rule="evenodd" d="M153.869 416.019C149.67 416.019 146.071 412.42 146.071 408.22V324.837C146.071 320.637 149.67 317.038 153.869 317.038H301.14C305.64 317.038 308.939 320.637 308.939 324.837C308.939 329.036 305.64 332.635 301.14 332.635H161.668V408.22C161.668 412.42 158.068 416.019 153.869 416.019ZM301.14 263.949H71.6852C67.486 263.949 63.8867 260.349 63.8867 256.15C63.8867 251.651 67.486 248.352 71.6852 248.352H301.14C305.64 248.352 308.939 251.651 308.939 256.15C308.939 260.349 305.64 263.949 301.14 263.949Z" fill="#3B566A"/>
<path fill-rule="evenodd" clip-rule="evenodd" d="M212.358 456.211H212.658C229.755 489.204 264.548 512 304.44 512C350.032 512 389.024 482.906 402.821 440.914C439.414 430.716 466.109 396.822 466.109 357.53C466.109 344.933 463.409 332.335 458.01 320.937C473.907 305.04 483.206 283.145 483.206 260.049C483.206 230.955 468.208 203.96 444.813 188.063C446.613 180.865 447.512 173.366 447.512 165.568C447.512 122.376 415.719 86.3831 374.327 80.0844C371.027 35.3931 333.535 0 287.944 0C255.55 0 227.355 17.6965 212.658 44.0914L212.358 43.7914V225.856V456.211Z" fill="#F77474"/>
<path fill-rule="evenodd" clip-rule="evenodd" d="M250.151 163.17C278.646 155.371 307.74 172.468 315.238 200.663C317.638 209.061 317.638 218.359 315.538 227.057C314.639 231.557 310.139 234.256 305.64 233.056C301.141 231.857 298.442 227.357 299.642 223.158C301.141 217.159 300.841 210.861 299.342 204.862C294.243 185.366 274.147 173.668 254.65 179.067C250.151 180.267 245.652 177.567 244.452 173.068C243.253 168.869 245.952 164.07 250.151 163.17ZM373.427 73.1875C374.027 75.587 374.027 77.6866 374.327 80.0862C378.826 80.686 383.025 81.5859 387.224 83.0856C379.426 109.48 353.331 121.478 326.636 116.079C326.636 116.079 326.336 116.079 326.336 115.779C322.137 114.879 319.438 110.68 320.337 106.181C321.237 101.982 325.436 98.9825 329.936 99.8823C349.432 103.782 366.528 96.5829 371.927 76.4869C372.227 75.2871 372.827 74.0873 373.427 73.1875ZM414.819 436.717C410.92 438.216 407.021 439.716 402.821 440.916C402.521 442.415 401.922 443.915 401.322 445.415C399.522 443.915 398.322 441.516 398.322 438.816C398.322 418.12 383.625 406.422 363.829 405.223C359.33 404.923 356.031 401.023 356.33 396.524C356.33 392.025 360.53 388.426 365.029 388.726C392.023 390.526 414.519 408.822 414.819 436.717ZM334.135 335.336C363.529 335.336 387.224 311.341 387.224 282.247C387.224 273.248 384.825 264.55 380.626 256.752C378.526 252.552 373.427 251.053 369.528 253.452C365.629 255.552 364.129 260.651 366.229 264.55C369.228 269.949 370.728 275.948 370.728 282.247C370.728 302.343 354.231 318.84 334.135 318.84C329.636 318.84 325.736 322.439 325.736 326.938C325.736 331.737 329.636 335.336 334.135 335.336Z" fill="#CC3A3A"/>
<path fill-rule="evenodd" clip-rule="evenodd" d="M286.444 228.555C311.639 243.253 344.333 234.554 359.03 209.359C363.529 201.561 365.929 192.862 366.229 183.864C366.229 179.365 362.629 175.466 358.13 175.466C353.331 175.166 349.732 178.765 349.732 183.564C349.432 189.563 347.932 195.562 344.633 200.961C334.735 218.357 312.239 224.356 294.543 214.458C290.643 212.059 285.544 213.558 283.445 217.458C281.045 221.357 282.545 226.456 286.444 228.555ZM358.73 324.237C358.73 353.631 335.035 377.326 305.64 377.326C296.642 377.326 287.944 375.227 280.145 371.028C276.246 368.628 274.746 363.829 276.846 359.63C278.946 355.731 284.045 354.231 287.944 356.33C293.343 359.33 299.342 360.83 305.64 360.83C325.736 360.83 342.233 344.633 342.233 324.237C342.233 319.738 345.832 316.138 350.632 316.138C355.131 316.138 358.73 319.738 358.73 324.237ZM397.122 416.919C382.725 442.114 350.032 450.812 324.537 436.115C317.038 431.916 310.439 425.317 305.64 417.818C303.541 413.919 304.741 408.82 308.64 406.421C312.539 404.021 317.638 405.221 320.038 409.12C323.037 414.519 327.536 418.718 332.935 422.018C350.332 431.916 372.827 425.917 383.025 408.52C385.125 404.621 390.224 403.121 394.123 405.521C398.022 407.92 399.522 412.719 397.122 416.919ZM297.242 120.876C267.848 120.876 244.152 97.1811 244.152 67.7868C244.152 58.7886 246.252 50.0903 250.751 42.2918C252.851 38.0926 257.95 36.8928 261.849 38.9924C265.748 41.092 267.248 46.191 265.148 50.0903C262.149 55.4892 260.649 61.488 260.649 67.7868C260.649 87.8829 277.146 104.38 297.242 104.38C301.741 104.38 305.64 107.979 305.64 112.778C305.64 117.277 301.741 120.876 297.242 120.876ZM297.242 322.437C267.848 322.437 244.152 298.442 244.152 269.347C244.152 260.349 246.252 251.651 250.751 243.852C252.851 239.653 257.95 238.154 261.849 240.553C265.748 242.653 267.248 247.752 265.148 251.651C262.149 257.05 260.649 263.049 260.649 269.347C260.649 289.444 277.146 305.94 297.242 305.94C301.741 305.94 305.64 309.54 305.64 314.039C305.64 318.838 301.741 322.437 297.242 322.437Z" fill="#CC3A3A"/>
<path fill-rule="evenodd" clip-rule="evenodd" d="M153.87 111.577C140.073 111.577 128.675 100.179 128.675 86.3817C128.675 72.2845 140.073 60.8867 153.87 60.8867C167.967 60.8867 179.365 72.2845 179.365 86.3817C179.365 100.179 167.967 111.577 153.87 111.577Z" fill="#FFC107"/>
<path fill-rule="evenodd" clip-rule="evenodd" d="M104.68 155.069C90.5823 155.069 79.1846 143.671 79.1846 129.574C79.1846 115.477 90.5823 104.379 104.68 104.379C118.477 104.379 129.875 115.477 129.875 129.574C129.875 143.671 118.477 155.069 104.68 155.069ZM104.68 407.92C90.5823 407.92 79.1846 396.522 79.1846 382.425C79.1846 368.627 90.5823 357.23 104.68 357.23C118.477 357.23 129.875 368.627 129.875 382.425C129.875 396.522 118.477 407.92 104.68 407.92Z" fill="#A5D6A7"/>
<path fill-rule="evenodd" clip-rule="evenodd" d="M156.569 450.811C142.472 450.811 131.074 439.413 131.074 425.616C131.074 411.519 142.472 400.121 156.569 400.121C170.666 400.121 181.764 411.519 181.764 425.616C181.764 439.413 170.666 450.811 156.569 450.811Z" fill="#FFC107"/>
<path fill-rule="evenodd" clip-rule="evenodd" d="M53.989 281.346C40.1917 281.346 28.7939 269.949 28.7939 256.151C28.7939 242.054 40.1917 230.656 53.989 230.656C68.0863 230.656 79.484 242.054 79.484 256.151C79.484 269.949 68.0863 281.346 53.989 281.346Z" fill="#6CBFF8"/>
</svg>
