<svg width="85" height="85" viewBox="0 0 85 85" fill="none" xmlns="http://www.w3.org/2000/svg">
<rect width="85" height="85" rx="20" fill="url(#paint0_linear_211_14)"/>
<path d="M63.7379 30.5728C65.5265 30.5728 66.9994 32.046 66.9996 33.8345V53.4077C66.9996 53.7437 66.948 54.069 66.8512 54.3745C66.4347 55.6978 65.1917 56.6694 63.7379 56.6694H39.8151C38.0265 56.6692 36.5534 55.1963 36.5533 53.4077V40.8335L44.9088 36.0093H47.4274V34.5552L49.6022 33.2993V36.0093H53.9518V32.7476H50.5582L54.3248 30.5728H63.7379ZM38.7281 53.4077C38.7282 54.0209 39.202 54.4944 39.8151 54.4946H41.9899V51.2329H38.7281V53.4077ZM44.1647 54.4946H47.4274V51.2329H44.1647V54.4946ZM49.6022 54.4946H53.9518V51.2329H49.6022V54.4946ZM56.1266 54.4946H59.3883V51.2329H56.1266V54.4946ZM61.5631 54.4946H63.7379C64.3511 54.4946 64.8248 54.021 64.8248 53.4077V51.2329H61.5631V54.4946ZM49.6149 39.2739C49.4231 39.2712 49.2342 39.3197 49.067 39.4136C48.8996 39.5082 48.7597 39.645 48.6627 39.811C48.5657 39.9772 48.5144 40.1665 48.5143 40.3589V46.8833C48.5144 47.0755 48.5659 47.2642 48.6627 47.4302C48.7596 47.5962 48.8988 47.7339 49.066 47.8286C49.2332 47.9233 49.4227 47.9725 49.6149 47.9702C49.8072 47.9678 49.9958 47.9138 50.1608 47.8149L55.5973 44.5532C55.7582 44.4567 55.8915 44.32 55.984 44.1567C56.0765 43.9933 56.1256 43.8084 56.1256 43.6206C56.1256 43.4329 56.0765 43.2488 55.984 43.0854C55.8915 42.922 55.7583 42.7846 55.5973 42.688L50.1608 39.4263C49.9955 39.3282 49.8071 39.2755 49.6149 39.2739ZM56.1266 36.0093H59.3883V32.7476H56.1266V36.0093ZM61.5631 36.0093H64.8248V33.8345C64.8246 33.2214 64.351 32.7476 63.7379 32.7476H61.5631V36.0093Z" fill="white"/>
<path d="M20.4958 37.4777C20.5105 37.4873 20.5248 37.4973 20.5402 37.5062L24.9173 40.0447L20.5401 42.5833C20.5248 42.5922 20.5104 42.6021 20.4957 42.6117C19.0028 43.5016 18.0002 45.1319 18.0002 46.9925C18.0002 49.803 20.2867 52.0896 23.0972 52.0896C25.9078 52.0896 28.1943 49.803 28.1943 46.9925C28.1943 45.6939 27.7055 44.5079 26.9031 43.6069L28.9812 42.4017L34.3109 45.4925V40.7788L33.0452 40.0447L43.7502 33.8363C43.9246 33.7351 44.0651 33.5845 44.1539 33.4035C44.2427 33.2225 44.2759 33.0192 44.2492 32.8193C44.2225 32.6195 44.1371 32.4321 44.0039 32.2808C43.8706 32.1295 43.6955 32.021 43.5007 31.9692C41.4406 31.4215 39.2906 31.7089 37.4465 32.7783L28.9813 37.6878L26.9031 36.4826C27.7056 35.5816 28.1944 34.3955 28.1944 33.097C28.1944 30.2864 25.9078 27.9999 23.0973 27.9999C20.2868 27.9999 18.0002 30.2864 18.0002 33.097C18.0002 34.9575 19.0029 36.5878 20.4958 37.4777ZM23.0973 50.0508C21.411 50.0508 20.0391 48.6788 20.0391 46.9925C20.0391 45.3062 21.411 43.9343 23.0973 43.9343C24.7836 43.9343 26.1556 45.3062 26.1556 46.9925C26.1556 48.6788 24.7836 50.0508 23.0973 50.0508ZM23.0973 30.0386C24.7836 30.0386 26.1556 31.4106 26.1556 33.0969C26.1556 34.7832 24.7836 36.1552 23.0973 36.1552C21.411 36.1552 20.0391 34.7832 20.0391 33.0969C20.0391 31.4106 21.411 30.0386 23.0973 30.0386Z" fill="white"/>
<defs>
<linearGradient id="paint0_linear_211_14" x1="42.5" y1="0" x2="42.5" y2="85" gradientUnits="userSpaceOnUse">
<stop stop-color="#25E15D"/>
<stop offset="1" stop-color="#098E7F"/>
</linearGradient>
</defs>
</svg>
