<svg width="85" height="85" viewBox="0 0 85 85" fill="none" xmlns="http://www.w3.org/2000/svg">
<rect width="85" height="85" rx="20" fill="url(#paint0_linear_68_203)"/>
<path fill-rule="evenodd" clip-rule="evenodd" d="M30.1945 18.3105C30.3683 18.3105 30.5349 18.3795 30.6578 18.5024C30.7807 18.6252 30.8497 18.7919 30.8497 18.9657V24.8625C30.8497 25.9051 31.2639 26.905 32.0011 27.6422C32.7384 28.3795 33.7383 28.7937 34.7809 28.7937H40.6777C40.8515 28.7937 41.0181 28.8627 41.141 28.9856C41.2639 29.1084 41.3329 29.2751 41.3329 29.4489V43.208C41.3329 44.2507 40.9187 45.2506 40.1815 45.9878C39.4443 46.7251 38.4443 47.1392 37.4017 47.1392H21.6769C20.6343 47.1392 19.6344 46.7251 18.8971 45.9878C18.1599 45.2506 17.7457 44.2507 17.7457 43.208V22.2417C17.7457 21.199 18.1599 20.1991 18.8971 19.4619C19.6344 18.7246 20.6343 18.3105 21.6769 18.3105H30.1945ZM27.5554 31.5796C27.3559 31.4686 27.1309 31.4117 26.9027 31.4145C26.6745 31.4172 26.4509 31.4796 26.2542 31.5953C26.0575 31.711 25.8944 31.8761 25.781 32.0742C25.6677 32.2723 25.6081 32.4966 25.6081 32.7248V39.2768C25.6081 39.5051 25.6677 39.7294 25.781 39.9275C25.8944 40.1256 26.0575 40.2907 26.2542 40.4064C26.4509 40.5221 26.6745 40.5844 26.9027 40.5872C27.1309 40.59 27.3559 40.5331 27.5554 40.4221L33.4522 37.1461C33.6564 37.0326 33.8265 36.8666 33.9449 36.6652C34.0634 36.4638 34.1258 36.2345 34.1258 36.0008C34.1258 35.7672 34.0634 35.5379 33.9449 35.3365C33.8265 35.1351 33.6564 34.9691 33.4522 34.8556L27.5554 31.5796ZM33.4705 18.5358C33.4705 18.4114 33.5714 18.3105 33.6959 18.3105C34.3909 18.3106 35.0574 18.5868 35.5488 19.0783L40.565 24.0946C41.0566 24.5859 41.3328 25.2524 41.3329 25.9475C41.3329 26.0072 41.3092 26.0646 41.2669 26.1068C41.2246 26.1491 41.1673 26.1729 41.1075 26.1729H34.7809C34.4334 26.1729 34.1001 26.0348 33.8543 25.789C33.6086 25.5433 33.4705 25.21 33.4705 24.8625V18.5358Z" fill="white"/>
<g clip-path="url(#clip0_68_203)">
<path d="M60.0062 44.7641C58.8207 44.7641 57.8563 43.7997 57.8563 42.6143V35.5504H46.8612C44.9984 35.5504 43.4828 37.0659 43.4828 38.9288V63.6216C43.4828 65.4844 44.9984 67 46.8612 67H64.0602C65.923 67 67.4386 65.4844 67.4386 63.6216V44.7641H60.0062ZM48.5197 57.6634H52.9865C53.4954 57.6634 53.9079 58.0759 53.9079 58.5847C53.9079 59.0936 53.4954 59.5061 52.9865 59.5061H48.5197C48.0109 59.5061 47.5983 59.0936 47.5983 58.5847C47.5983 58.0759 48.0109 57.6634 48.5197 57.6634ZM47.5983 53.6708C47.5983 53.1619 48.0109 52.7494 48.5197 52.7494H62.0332C62.542 52.7494 62.9546 53.1619 62.9546 53.6708C62.9546 54.1796 62.542 54.5921 62.0332 54.5921H48.5197C48.0109 54.5921 47.5983 54.1796 47.5983 53.6708ZM62.0332 47.8354C62.542 47.8354 62.9546 48.2479 62.9546 48.7568C62.9546 49.2656 62.542 49.6781 62.0332 49.6781H48.5197C48.0109 49.6781 47.5983 49.2656 47.5983 48.7568C47.5983 48.2479 48.0109 47.8354 48.5197 47.8354H62.0332Z" fill="white"/>
<path d="M59.6991 42.6142C59.6991 42.7836 59.8369 42.9214 60.0062 42.9214H67.028C66.8586 42.6078 66.6406 42.3231 66.3821 42.0779L60.4593 36.4746C60.2322 36.2597 59.9763 36.0772 59.6992 35.9325V42.6142H59.6991Z" fill="white"/>
</g>
<path d="M35.819 55.1229C35.597 54.9005 35.235 54.9005 35.013 55.1229L34.2758 55.8601C34.0534 56.0821 34.0534 56.4441 34.2758 56.666L35.013 58.0175H24.8691C23.926 58.0175 23.1588 56.6361 23.1588 55.693C23.1588 55.2216 22.7751 54.8378 22.3037 54.8378H21.7336C21.2622 54.8378 19.9571 55.2216 19.9571 55.693C19.9571 57.8935 21.7472 60.9122 23.9478 60.9122H35.013L34.2758 61.6494C34.0534 61.8714 34.0534 62.2334 34.2758 62.4553L35.013 63.1926C35.235 63.4149 35.597 63.4149 35.819 63.1926L39.0383 59.3594C39.0917 59.3058 39.1216 59.2333 39.1216 59.1577C39.1216 59.0821 39.0917 59.0096 39.0383 58.956L35.819 55.1229Z" fill="white"/>
<path d="M48.5668 29.6591C48.7887 29.8814 49.1508 29.8814 49.3727 29.6591L50.11 28.9219C50.3323 28.6999 50.3323 28.3379 50.11 28.1159L49.3727 26.7644H59.5166C60.4598 26.7644 61.2269 28.1458 61.2269 29.089C61.2269 29.5604 61.6107 29.9441 62.0821 29.9441H62.6522C63.1236 29.9441 64.4287 29.5604 64.4287 29.089C64.4287 26.8884 62.6386 23.8698 60.438 23.8698H49.3727L50.11 23.1326C50.3323 22.9106 50.3323 22.5486 50.11 22.3266L49.3727 21.5894C49.1508 21.3671 48.7887 21.3671 48.5668 21.5894L45.3475 25.4226C45.2941 25.4761 45.2641 25.5486 45.2641 25.6242C45.2641 25.6999 45.2941 25.7724 45.3475 25.8259L48.5668 29.6591Z" fill="white"/>
<defs>
<linearGradient id="paint0_linear_68_203" x1="42.5" y1="0" x2="42.5" y2="85" gradientUnits="userSpaceOnUse">
<stop stop-color="#3FB0F5"/>
<stop offset="1" stop-color="#3720B4"/>
</linearGradient>
<clipPath id="clip0_68_203">
<rect width="31.4496" height="31.4496" fill="white" transform="translate(39.7359 35.5504)"/>
</clipPath>
</defs>
</svg>
