<svg width="85" height="85" viewBox="0 0 85 85" fill="none" xmlns="http://www.w3.org/2000/svg">
<rect width="85" height="85" rx="20" fill="#D9D9D9"/>
<rect width="85" height="85" rx="20" fill="url(#paint0_linear_211_5)"/>
<path d="M57.6564 30.5763H59.4719C59.4719 28.7179 59.7391 26.572 58.0108 24.8601C57.4681 24.3225 56.9545 23.8968 56.5014 23.5212C55.3032 22.5279 54.8169 22.0818 54.8169 21H53.0014V34.2723C52.3305 33.8258 51.5403 33.5877 50.7319 33.5886C48.4794 33.5886 46.6469 35.4037 46.6469 37.6349C46.6469 39.866 48.4794 41.6812 50.7319 41.6812C52.9982 41.6812 54.8554 39.8401 54.815 37.5599H54.8169V24.4637C55.3893 24.959 56.032 25.4433 56.727 26.1317C57.8787 27.2725 57.6564 28.7698 57.6564 30.5763ZM28.7623 38.6649V52.6756C28.0914 52.2291 27.3012 51.991 26.4929 51.9919C24.2403 51.9919 22.4078 53.807 22.4078 56.0382C22.4078 58.2694 24.2403 60.0845 26.4929 60.0845C28.7454 60.0845 30.5779 58.2694 30.5779 56.0382V43.6954C33.5869 43.105 39.5112 41.943 42.5001 41.3567V49.0788C41.8291 48.6323 41.0389 48.3942 40.2306 48.3951C37.9781 48.3951 36.1456 50.2102 36.1456 52.4414C36.1456 54.6726 37.9781 56.4877 40.2306 56.4877C42.4831 56.4877 44.3156 54.6726 44.3156 52.4414V35.6108L28.7623 38.6649Z" fill="white"/>
<path d="M26.222 46.0099C24.9127 44.1077 24.2169 41.8593 24.2242 39.5597C24.224 33.1656 29.4966 27.8944 35.9725 27.8182C36.7905 27.8072 37.613 27.8814 38.4133 28.0388L35.7558 29.7165C35.3109 29.9995 35.1793 30.5799 35.465 31.0206L35.4679 31.0251C35.7507 31.4613 36.3367 31.5917 36.7845 31.3131L41.25 28.498C41.6859 28.2208 41.8232 27.6493 41.5523 27.2117L38.8217 22.7743C38.5466 22.3206 37.9578 22.1858 37.5115 22.457C37.0653 22.7283 36.9219 23.3099 37.1957 23.7519L38.6784 26.1663C34.1712 25.3235 29.5341 26.7576 26.3177 29.9917C23.7381 32.5629 22.3175 35.9626 22.3173 39.5654C22.3085 42.1174 23.046 44.616 24.4399 46.7662C24.5091 46.873 24.5784 46.9799 24.6493 47.0794C24.9395 47.5173 25.5315 47.6374 25.9691 47.3528C26.4066 47.0682 26.5324 46.479 26.2451 46.0455L26.222 46.0099Z" fill="white"/>
<path d="M50.2823 63.0842L48.5298 60.8542C53.1048 61.1792 57.5452 59.2276 60.3698 55.6461C62.6271 52.7979 63.6445 49.2592 63.2309 45.6842C62.9266 43.0186 61.8133 40.5098 60.0439 38.4849C59.6883 38.0963 59.0882 38.0632 58.6959 38.4154C58.3126 38.7534 58.2732 39.3323 58.602 39.722C60.123 41.4628 61.0747 43.6173 61.3338 45.9025C62.0705 52.2578 57.4474 58.09 51.0224 58.9091C50.211 59.013 49.3854 59.0328 48.5721 58.9673L51.0177 56.9987C51.4269 56.667 51.4904 56.0755 51.1555 55.6702L51.1521 55.6661C50.8207 55.2648 50.2194 55.2053 49.8109 55.5296L45.701 58.8335C45.3 59.1585 45.2298 59.7418 45.5496 60.1457L48.7762 64.2435L48.7931 64.264C49.1321 64.666 49.7341 64.718 50.1359 64.3856C50.5334 64.0565 50.5988 63.484 50.2823 63.0842Z" fill="white"/>
<defs>
<linearGradient id="paint0_linear_211_5" x1="42.5" y1="0" x2="42.5" y2="85" gradientUnits="userSpaceOnUse">
<stop stop-color="#F53F3F"/>
<stop offset="1" stop-color="#B42020"/>
</linearGradient>
</defs>
</svg>
